HIERARCHY
ROOT reference
{
  OFFSET 0 0 0
  CHANNELS 6 Xposition Yposition Zposition Zrotation Xrotation Yrotation
  JOINT Hips
  {
    OFFSET -3.8979 72.2306 -196.424
    CHANNELS 6 Xposition Yposition Zposition Zrotation Xrotation Yrotation
    JOINT Spine
    {
      OFFSET 0 7.59534 0
      CHANNELS 6 Xposition Yposition Zposition Zrotation Xrotation Yrotation
      JOINT Spine1
      {
        OFFSET 0 23.5015 0
        CHANNELS 6 Xposition Yposition Zposition Zrotation Xrotation Yrotation
        JOINT Neck
        {
          OFFSET 0 23.405 2.12773
          CHANNELS 6 Xposition Yposition Zposition Zrotation Xrotation Yrotation
          JOINT Head
          {
            OFFSET 0 12.9677 -1.85252
            CHANNELS 6 Xposition Yposition Zposition Zrotation Xrotation Yrotation
            End Site
            {
              OFFSET 0 23.1565 0
            }
          }
        }
        JOINT LeftShoulder
        {
          OFFSET 3.62206 22.4732 -0.132728
          CHANNELS 6 Xposition Yposition Zposition Zrotation Xrotation Yrotation
          JOINT LeftArm
          {
            OFFSET 8.17784 0 0
            CHANNELS 6 Xposition Yposition Zposition Zrotation Xrotation Yrotation
            JOINT LeftForeArm
            {
              OFFSET 30.104 0 0
              CHANNELS 6 Xposition Yposition Zposition Zrotation Xrotation Yrotation
              JOINT LeftHand
              {
                OFFSET 24.4664 0 0
                CHANNELS 6 Xposition Yposition Zposition Zrotation Xrotation Yrotation
                End Site
                {
                  OFFSET 13.8939 0 0
                }
              }
            }
          }
        }
        JOINT RightShoulder
        {
          OFFSET -3.6336 22.4732 -0.132728
          CHANNELS 6 Xposition Yposition Zposition Zrotation Xrotation Yrotation
          JOINT RightArm
          {
            OFFSET -8.17784 0 0
            CHANNELS 6 Xposition Yposition Zposition Zrotation Xrotation Yrotation
            JOINT RightForeArm
            {
              OFFSET -30.104 0 0
              CHANNELS 6 Xposition Yposition Zposition Zrotation Xrotation Yrotation
              JOINT RightHand
              {
                OFFSET -24.4664 0 0
                CHANNELS 6 Xposition Yposition Zposition Zrotation Xrotation Yrotation
                End Site
                {
                  OFFSET -13.8939 0 0
                }
              }
            }
          }
        }
      }
    }
    JOINT LeftUpLeg
    {
      OFFSET 9.26261 0 0
      CHANNELS 6 Xposition Yposition Zposition Zrotation Xrotation Yrotation
      JOINT LeftLeg
      {
        OFFSET 0 -35.4897 0
        CHANNELS 6 Xposition Yposition Zposition Zrotation Xrotation Yrotation
        JOINT LeftFoot
        {
          OFFSET 0 -38.2023 0
          CHANNELS 6 Xposition Yposition Zposition Zrotation Xrotation Yrotation
          JOINT LeftToeBase
          {
            OFFSET 0 -6.0207 13.8939
            CHANNELS 6 Xposition Yposition Zposition Zrotation Xrotation Yrotation
            End Site
            {
              OFFSET 0 0 3.70504
            }
          }
        }
      }
    }
    JOINT RightUpLeg
    {
      OFFSET -9.26261 0 0
      CHANNELS 6 Xposition Yposition Zposition Zrotation Xrotation Yrotation
      JOINT RightLeg
      {
        OFFSET 0 -35.4897 0
        CHANNELS 6 Xposition Yposition Zposition Zrotation Xrotation Yrotation
        JOINT RightFoot
        {
          OFFSET 0 -38.2023 0
          CHANNELS 6 Xposition Yposition Zposition Zrotation Xrotation Yrotation
          JOINT RightToeBase
          {
            OFFSET 0 -6.0207 13.8939
            CHANNELS 6 Xposition Yposition Zposition Zrotation Xrotation Yrotation
            End Site
            {
              OFFSET 0 0 3.70504
            }
          }
        }
      }
    }
  }
}
MOTION
Frames:	6
Frame Time:	0.004
0 0 0 0 0 -0 132.59 80.0815 -63.9801 8.23463 -6.90666 170.64 0 7.59534 0 0.298103 -2.48285 5.8508 -2.84217e-014 23.5015 0 0.914579 -5.46014 5.88796 2.84217e-014 23.405 2.12773 -4.58311 25.3563 0.720969 -2.84217e-014 12.9677 -1.85252 -4.1657 -10.1062 -0.605452 3.62206 22.4732 -0.132728 -13.4588 9.32845 16.2519 8.17784 0 0 -57.4405 57.3678 10.8297 30.104 0 0 29.1813 -35.7784 -74.9755 24.4664 1.06581e-014 0 -30.5034 -15.2217 0.867027 -3.6336 22.4732 -0.132728 1.46081 30.9738 25.0221 -8.17784 0 -2.84217e-014 38.2347 33.8941 11.1245 -30.104 0 0 -26.6655 -30.3598 78.151 -24.4664 -2.84217e-014 1.42109e-014 -6.41503 -9.43058 -1.54864 9.26261 0 0 2.58587 -20.9011 5.74824 0 -35.4897 -1.42109e-014 -12.001 22.7794 0.118042 0 -38.2023 1.42109e-014 3.22683 -9.77976 12.6445 0 -6.0207 13.8939 -4.26766e-015 4.96962e-017 -7.95139e-016 -9.26261 -1.42109e-014 0 -4.96899 5.96293 -10.2307 -2.84217e-014 -35.4897 0 -1.67658 20.8695 -6.37453 0 -38.2023 0 10.6967 30.4591 15.0955 -5.68434e-014 -6.0207 13.8939 3.18055e-015 0 -0 
0 0 0 0 0 -0 132.604 80.2479 -64.7986 8.36488 -7.0381 170.814 0 7.59534 -1.42109e-014 0.200334 -2.84081 5.95584 2.84217e-014 23.5015 1.42109e-014 1.18588 -5.43746 6.0072 2.84217e-014 23.405 2.12773 -4.61539 25.3487 0.635526 0 12.9677 -1.85252 -4.11393 -10.0089 -0.681576 3.62206 22.4732 -0.132728 -13.4295 9.36633 16.2644 8.17784 0 0 -57.6399 57.1499 11.0861 30.104 7.10543e-015 0 28.943 -35.6256 -75.3308 24.4664 0 0 -29.8549 -15.1511 1.12609 -3.6336 22.4732 -0.132728 1.46453 30.9073 24.94 -8.17784 -2.84217e-014 -1.42109e-014 38.3732 33.9587 10.9601 -30.104 0 0 -26.3142 -29.9732 78.8797 -24.4664 0 2.84217e-014 -6.217 -9.0118 -1.49809 9.26261 -1.42109e-014 -1.42109e-014 2.42493 -20.6198 6.05116 0 -35.4897 0 -11.3826 20.6269 0.557009 0 -38.2023 1.42109e-014 2.5799 -8.76819 12.1477 0 -6.0207 13.8939 8.94531e-016 0 -0 -9.26261 0 -1.42109e-014 -4.8453 6.38356 -10.4287 2.84217e-014 -35.4897 0 -1.96718 20.0432 -6.45926 1.42109e-014 -38.2023 -1.42109e-014 9.36975 32.3191 16.7507 -2.84217e-014 -6.0207 13.8939 3.18055e-015 -6.36111e-015 -1.59028e-015 
0 0 0 0 0 -0 132.599 80.3942 -65.5621 8.52382 -7.2252 171.131 2.84217e-014 7.59534 0 0.239786 -3.08339 6.0301 0 23.5015 0 1.2191 -5.62595 6.08356 -2.84217e-014 23.405 2.12773 -4.45216 25.3136 0.506115 0 12.9677 -1.85252 -4.1213 -9.7817 -0.793973 3.62206 22.4732 -0.132728 -13.2365 9.44457 16.1306 8.17784 1.42109e-014 0 -57.9979 56.967 11.4134 30.104 7.10543e-015 0 29.0792 -35.612 -75.3779 24.4664 7.10543e-015 -2.84217e-014 -29.8787 -14.9943 1.09219 -3.6336 22.4732 -0.132728 1.55948 30.7555 24.9007 -8.17784 0 1.42109e-014 38.725 34.2016 10.6044 -30.104 0 0 -26.1447 -29.7539 79.4454 -24.4664 0 0 -5.86065 -8.68802 -1.54656 9.26261 0 0 2.27273 -20.4777 6.12798 2.84217e-014 -35.4897 1.42109e-014 -10.917 18.5989 1.10017 0 -38.2023 0 2.20646 -7.54599 11.8792 -2.84217e-014 -6.0207 13.8939 7.90169e-015 3.97569e-016 -2.38542e-015 -9.26261 0 0 -4.66171 6.64992 -10.7063 0 -35.4897 0 -2.31282 19.4546 -6.24559 0 -38.2023 0 8.33055 33.6362 17.9968 0 -6.0207 13.8939 0 0 -0 
0 0 0 0 0 -0 132.614 80.5156 -66.3006 8.70644 -7.44553 171.377 0 7.59534 0 0.205149 -3.3967 6.10206 0 23.5015 0 1.46549 -5.75909 6.16971 2.84217e-014 23.405 2.12773 -4.37964 25.2742 0.50267 0 12.9677 -1.85252 -4.23543 -9.5715 -0.807827 3.62206 22.4732 -0.132728 -13.1502 9.484 16.1022 8.17784 -2.84217e-014 1.42109e-014 -58.4148 56.9982 11.7844 30.104 0 7.10543e-015 29.0314 -35.6916 -75.5417 24.4664 1.24345e-014 0 -29.0806 -15.1461 1.46614 -3.6336 22.4732 -0.132728 1.60198 30.7993 24.7689 -8.17784 2.84217e-014 -1.42109e-014 38.7451 34.3089 10.4941 -30.104 1.42109e-014 2.84217e-014 -25.9398 -29.5042 80.0465 -24.4664 0 1.42109e-014 -5.5735 -8.34663 -1.62972 9.26261 -1.42109e-014 0 2.16926 -20.3996 6.39907 0 -35.4897 0 -10.3884 16.7842 1.59187 0 -38.2023 -1.42109e-014 1.71152 -6.35837 11.5793 0 -6.0207 13.8939 -3.13086e-015 3.97569e-016 -1.59028e-015 -9.26261 0 0 -4.40396 6.80291 -10.9078 0 -35.4897 0 -2.72929 19.0109 -6.29726 1.42109e-014 -38.2023 1.42109e-014 7.0545 34.6779 19.7537 2.84217e-014 -6.0207 13.8939 0 3.18055e-015 -0 
0 0 0 0 0 -0 132.633 80.6066 -67.0753 8.95987 -7.79688 171.655 0 7.59534 1.42109e-014 0.299423 -3.8641 6.14222 0 23.5015 0 1.63131 -5.81124 6.21495 0 23.405 2.12773 -4.39032 25.2266 0.422255 2.84217e-014 12.9677 -1.85252 -4.17545 -9.49534 -0.873485 3.62206 22.4732 -0.132728 -13.0285 9.45963 16.1991 8.17784 1.42109e-014 7.10543e-015 -58.8446 57.0703 12.1519 30.104 1.42109e-014 7.10543e-015 29.1034 -35.7962 -75.6199 24.4664 7.10543e-015 0 -28.5988 -15.2299 1.70291 -3.6336 22.4732 -0.132728 1.65419 30.6876 24.7442 -8.17784 2.84217e-014 -2.84217e-014 38.8769 34.5125 10.2579 -30.104 0 0 -26.1113 -29.3666 80.4021 -24.4664 2.84217e-014 -1.42109e-014 -4.32331 -7.91249 -1.47094 9.26261 -1.42109e-014 1.42109e-014 2.11687 -20.5035 6.76692 0 -35.4897 -1.42109e-014 -9.71182 15.0445 1.85417 -5.68434e-014 -38.2023 -1.42109e-014 0.817142 -5.21587 11.2965 0 -6.0207 13.8939 5.96354e-016 0 -0 -9.26261 0 1.42109e-014 -4.034 6.76504 -10.9636 -2.84217e-014 -35.4897 0 -3.14642 18.8106 -5.98809 -1.42109e-014 -38.2023 -1.42109e-014 5.93677 34.9805 21.0585 0 -6.0207 13.8939 -4.77083e-015 6.36111e-015 -1.59028e-015 
0 0 0 0 0 -0 132.659 80.7068 -67.9037 9.16603 -7.8568 171.879 0 7.59534 1.42109e-014 0.258241 -4.09254 6.2063 2.84217e-014 23.5015 0 1.87446 -5.81376 6.29228 0 23.405 2.12773 -4.40219 25.1001 0.362012 2.84217e-014 12.9677 -1.85252 -4.13015 -9.38327 -0.920529 3.62206 22.4732 -0.132728 -12.921 9.46067 16.2457 8.17784 2.84217e-014 0 -59.2778 57.143 12.5466 30.104 0 7.10543e-015 29.3823 -35.9959 -75.4823 24.4664 -1.42109e-014 2.84217e-014 -28.6696 -15.2083 1.35456 -3.6336 22.4732 -0.132728 1.68998 30.666 24.619 -8.17784 2.84217e-014 2.84217e-014 38.9753 34.6588 10.0904 -30.104 -1.42109e-014 -2.84217e-014 -26.069 -29.1462 80.9889 -24.4664 0 -1.42109e-014 -3.83405 -7.45949 -1.66985 9.26261 -1.42109e-014 0 1.94627 -20.1741 7.19664 0 -35.4897 -1.42109e-014 -9.05538 13.1988 2.41359 0 -38.2023 1.42109e-014 0.227238 -3.88996 10.8505 0 -6.0207 13.8939 3.77691e-015 7.95139e-016 -1.59028e-015 -9.26261 0 0 -3.74038 7.01935 -10.7394 -2.84217e-014 -35.4897 0 -3.51108 18.643 -6.09661 0 -38.2023 1.42109e-014 4.59454 35.2831 22.5989 2.84217e-014 -6.0207 13.8939 -3.18055e-015 -6.36111e-015 1.59028e-015 
